<?xml version="1.0" standalone="no"?>
<!DOCTYPE svg PUBLIC "-//W3C//DTD SVG 20010904//EN"
 "http://www.w3.org/TR/2001/REC-SVG-20010904/DTD/svg10.dtd">
<svg version="1.0" xmlns="http://www.w3.org/2000/svg"
 width="700.000000pt" height="700.000000pt" viewBox="0 0 700.000000 700.000000"
 preserveAspectRatio="xMidYMid meet">
<metadata>
Created by potrace 1.14, written by Peter Selinger 2001-2017
</metadata>
<g transform="translate(0.000000,700.000000) scale(0.100000,-0.100000)"
fill="#000000" stroke="none">
<path d="M423 6980 c-77 -39 -93 -127 -35 -183 38 -37 80 -47 190 -47 180 0
386 -58 524 -149 206 -135 315 -341 337 -640 8 -122 20 -149 74 -175 70 -33
146 -8 181 59 18 35 19 45 8 164 -27 297 -129 526 -308 690 -195 179 -476 283
-804 297 -114 5 -129 4 -167 -16z"/>
<path d="M1420 4548 c0 -619 4 -1132 10 -1212 19 -264 81 -498 196 -735 113
-235 235 -405 428 -596 369 -366 798 -575 1376 -671 96 -16 222 -18 1403 -21
l1297 -4 0 1160 c0 1271 0 1262 -60 1495 -129 500 -452 941 -915 1251 -308
206 -748 359 -1135 394 -73 7 -571 11 -1357 11 l-1243 0 0 -1072z m1890 637
c1079 -115 1954 -834 2191 -1800 87 -356 79 -768 -22 -1110 -28 -93 -92 -265
-99 -265 -3 0 -554 502 -1225 1116 -671 614 -1412 1292 -1647 1507 -236 215
-428 394 -428 397 0 4 44 21 98 38 173 55 347 93 512 112 52 5 109 12 125 14
81 9 375 4 495 -9z"/>
<path d="M1461 1100 c-154 -41 -281 -142 -347 -274 -90 -184 -61 -381 81 -534
142 -154 359 -216 569 -162 96 24 164 60 235 125 249 228 216 590 -72 776
-126 82 -316 110 -466 69z m255 -215 c157 -47 251 -227 191 -367 -24 -57 -101
-133 -160 -159 -77 -34 -192 -33 -267 2 -154 73 -216 231 -146 372 65 133 229
198 382 152z"/>
<path d="M6030 1104 c-266 -69 -443 -314 -402 -557 42 -249 274 -437 541 -437
191 0 377 96 473 244 102 158 105 364 6 518 -38 61 -130 145 -195 181 -114 61
-299 84 -423 51z m263 -224 c157 -59 231 -229 163 -375 -66 -143 -267 -212
-416 -143 -74 33 -110 66 -145 130 -25 44 -30 64 -30 123 0 59 5 79 30 124 76
137 246 198 398 141z"/>
</g>
</svg>
